<svg xmlns="http://www.w3.org/2000/svg" viewBox="0 0 404.35 181.02"><title>aplicacion-web_1</title><g id="Capa_2" data-name="Capa 2"><g id="aplicacion"><polygon points="133.88 179.26 93.25 179.26 98.92 134.67 128.2 134.67 133.88 179.26" fill="#878787"/><rect width="227.13" height="144" rx="12" fill="#3c3c3b"/><rect x="13.64" y="12" width="199.85" height="120" fill="#aed8e4"/><path d="M164.39,180.44c0-.07,0-.14,0-.21,0-6.25-4.65-11.36-7.89-11.36H70.62c-3.24,0-7.89,5.11-7.89,11.36v.21Z" fill="#3c3c3b"/><circle cx="23.76" cy="138.33" r="2.66" fill="#3aaa35"/><circle cx="33.01" cy="138.33" r="2.66" fill="#fff"/><circle cx="42.26" cy="138.33" r="2.66" fill="#fff"/><rect x="17.21" y="16.39" width="143.29" height="109.21" fill="#fff"/><rect x="167.87" y="12" width="44.09" height="120" fill="#1d1d1b" opacity="0.43"/><rect x="169.61" y="12" width="44.09" height="120" fill="#fff"/><rect x="21.1" y="21.35" width="61.09" height="8.31" fill="#414040"/><rect x="22.23" y="35.04" width="60.52" height="24.76" fill="#ab605d"/><rect x="88.86" y="35.04" width="62.21" height="24.76" fill="#706f6f"/><rect x="22.23" y="67.24" width="128.83" height="50.66" fill="#ab605d"/><path d="M210.08,60.8H173.17v-34h36.91Zm-34.91-2h32.91v-30H175.17Z" fill="#706f6f"/><path d="M210.37,124.61H173.46V65.24h36.91Zm-34.91-2h32.91V67.24H175.46Z" fill="#706f6f"/><rect x="173.3" y="18.46" width="37.24" height="5.78" fill="#690c07"/><path d="M207.7,70.17H369.81a7.53,7.53,0,0,1,7.53,7.53v94.58a0,0,0,0,1,0,0H200.17a0,0,0,0,1,0,0V77.7A7.53,7.53,0,0,1,207.7,70.17Z" fill="#3c3c3b" stroke="#fff" stroke-miterlimit="10"/><rect x="208.68" y="77.8" width="160.15" height="86.84" fill="#575756"/><path d="M173.15,170.79h231.2a0,0,0,0,1,0,0V173a8,8,0,0,1-8,8H181.15a8,8,0,0,1-8-8v-2.24A0,0,0,0,1,173.15,170.79Z" fill="#878787"/><rect x="222.28" y="85.16" width="8.36" height="1.98" fill="#009fe3"/><rect x="232" y="85.16" width="32.35" height="1.98" fill="#fff"/><rect x="265.44" y="85.16" width="10.09" height="1.98" fill="#009fe3"/><rect x="226.46" y="90.55" width="8.36" height="1.98" fill="#009fe3"/><rect x="236.19" y="90.55" width="7.65" height="1.98" fill="#f39200"/><rect x="244.88" y="90.55" width="10.16" height="1.98" fill="#fff"/><rect x="256.89" y="90.55" width="10.09" height="1.98" fill="#009fe3"/><rect x="232.71" y="95.95" width="8.36" height="1.98" fill="#cbbba0"/><rect x="242.44" y="95.95" width="14.16" height="1.98" fill="#2fac66"/><rect x="259.22" y="95.95" width="30.98" height="1.98" fill="#fff"/><rect x="291.67" y="95.95" width="10.09" height="1.98" fill="#cbbba0"/><rect x="243.26" y="106.74" width="8.36" height="1.98" fill="#cbbba0"/><rect x="252.99" y="106.74" width="14.16" height="1.98" fill="#ad4d97"/><rect x="269.77" y="106.74" width="30.98" height="1.98" fill="#fff"/><rect x="302.21" y="106.74" width="10.09" height="1.98" fill="#ad4d97"/><rect x="313.99" y="106.74" width="30.98" height="1.98" fill="#fff"/><rect x="346.43" y="106.74" width="10.09" height="1.98" fill="#cbbba0"/><rect x="243.26" y="112.46" width="8.36" height="1.98" fill="#cbbba0"/><rect x="252.99" y="112.46" width="14.16" height="1.98" fill="#ad4d97"/><rect x="269.77" y="112.46" width="30.98" height="1.98" fill="#fff"/><rect x="302.21" y="112.46" width="10.09" height="1.98" fill="#ad4d97"/><rect x="313.99" y="112.46" width="30.98" height="1.98" fill="#fff"/><rect x="346.43" y="112.46" width="10.09" height="1.98" fill="#cbbba0"/><rect x="242.97" y="133.2" width="8.36" height="1.98" fill="#cbbba0"/><rect x="252.7" y="133.2" width="14.16" height="1.98" fill="#ebe668"/><rect x="269.48" y="133.2" width="30.98" height="1.98" fill="#fff"/><rect x="301.92" y="133.2" width="10.09" height="1.98" fill="#ebe668"/><rect x="313.7" y="133.2" width="30.98" height="1.98" fill="#fff"/><rect x="346.14" y="133.2" width="10.09" height="1.98" fill="#cbbba0"/><rect x="243.26" y="117.4" width="8.36" height="1.98" fill="#cbbba0"/><rect x="252.99" y="117.4" width="14.16" height="1.98" fill="#ad4d97"/><rect x="269.77" y="117.4" width="30.98" height="1.98" fill="#fff"/><rect x="302.21" y="117.4" width="10.09" height="1.98" fill="#ad4d97"/><rect x="313.99" y="117.4" width="30.98" height="1.98" fill="#fff"/><rect x="346.43" y="117.4" width="10.09" height="1.98" fill="#cbbba0"/><rect x="236.64" y="101.35" width="8.36" height="1.98" fill="#009fe3"/><rect x="246.37" y="101.35" width="14.16" height="1.98" fill="#eb579a"/><rect x="262.65" y="101.35" width="10.09" height="1.98" fill="#009fe3"/><rect x="236.64" y="123.02" width="8.36" height="1.98" fill="#009fe3"/><rect x="246.37" y="123.02" width="14.16" height="1.98" fill="#eb579a"/><rect x="262.65" y="123.02" width="10.09" height="1.98" fill="#009fe3"/><rect x="236.99" y="128.55" width="8.36" height="1.98" fill="#009fe3"/><rect x="246.72" y="128.55" width="14.16" height="1.98" fill="#6fb179"/><rect x="263" y="128.55" width="10.09" height="1.98" fill="#009fe3"/><rect x="236.99" y="137.86" width="8.36" height="1.98" fill="#009fe3"/><rect x="246.72" y="137.86" width="14.16" height="1.98" fill="#6fb179"/><rect x="263" y="137.86" width="10.09" height="1.98" fill="#009fe3"/><rect x="232.71" y="143.08" width="8.36" height="1.98" fill="#cbbba0"/><rect x="242.44" y="143.08" width="14.16" height="1.98" fill="#2fac66"/><rect x="259.3" y="143.08" width="10.09" height="1.98" fill="#cbbba0"/><rect x="226.46" y="149.55" width="8.36" height="1.98" fill="#009fe3"/><rect x="236.88" y="149.55" width="10.16" height="1.98" fill="#fff"/><rect x="248.89" y="149.55" width="10.09" height="1.98" fill="#009fe3"/><rect x="222.28" y="155.3" width="8.36" height="1.98" fill="#009fe3"/><rect x="232" y="155.3" width="32.35" height="1.98" fill="#fff"/><rect x="265.44" y="155.3" width="10.09" height="1.98" fill="#009fe3"/></g></g></svg>