<svg xmlns="http://www.w3.org/2000/svg" viewBox="0 0 322.24 183.93"><title>diseno-ux</title><g id="Capa_2" data-name="Capa 2"><g id="diseño_ux_ui" data-name="diseño ux/ui"><polygon points="133.88 179.26 93.25 179.26 98.92 134.67 128.2 134.67 133.88 179.26" fill="#878787"/><rect width="227.13" height="144" rx="12" fill="#3c3c3b"/><rect x="13.64" y="12" width="199.85" height="120" fill="#aed8e4"/><path d="M164.39,180.44c0-.07,0-.14,0-.21,0-6.25-4.65-11.36-7.89-11.36H70.62c-3.24,0-7.89,5.11-7.89,11.36v.21Z" fill="#3c3c3b"/><circle cx="23.76" cy="138.33" r="2.66" fill="#3aaa35"/><circle cx="33.01" cy="138.33" r="2.66" fill="#fff"/><circle cx="42.26" cy="138.33" r="2.66" fill="#fff"/><polygon points="199.44 57.82 200.3 178.75 286.68 179.26 288.6 84.44 262.11 55.34 199.44 57.82" fill="#fff"/><path d="M263.19,53.15a2.15,2.15,0,0,0-1.59-.68H205.25a10,10,0,0,0-10,10v111a10,10,0,0,0,10,10h76.68a10,10,0,0,0,10-10V84.93a2.77,2.77,0,0,0-.75-1.91Zm21.24,30.68H266.87a4.33,4.33,0,0,1-4.32-4.32V60.71Zm1.83,89.61a4.33,4.33,0,0,1-4.33,4.32H205.25a4.33,4.33,0,0,1-4.32-4.32v-111a4.33,4.33,0,0,1,4.32-4.33h51.63V79.51a10,10,0,0,0,10,10h19.39Z" fill="#3c3c3b" stroke="#fff" stroke-miterlimit="10"/><path d="M320.1,104.76l-5.37,5.37a1.39,1.39,0,0,1-2,0L299.82,97.2a1.39,1.39,0,0,1,0-2l5.37-5.37a5.6,5.6,0,0,1,7.91,0l7,7A5.58,5.58,0,0,1,320.1,104.76Zm-24.89-4.93-30.59,30.59-2.47,14.16a2.79,2.79,0,0,0,3.24,3.23l14.15-2.48,30.59-30.59a1.39,1.39,0,0,0,0-2L297.2,99.83a1.42,1.42,0,0,0-2,0Zm-18.65,28a1.62,1.62,0,0,1,0-2.3l17.94-17.94a1.63,1.63,0,0,1,2.3,2.3L278.87,127.8a1.63,1.63,0,0,1-2.31,0Zm-4.21,9.8H278v4.23l-7.52,1.31-3.62-3.62,1.32-7.51h4.22Z" fill="#3c3c3b" stroke="#fff" stroke-miterlimit="10"/><polygon points="258.11 128.28 206.76 128.28 206.76 113.47 272.11 113.47 258.11 128.28" fill="#ab605d"/><rect x="206.76" y="93.02" width="75.2" height="14.81" fill="#ab605d"/><rect x="206.13" y="63.51" width="45.57" height="22.25" fill="#ab605d"/><polygon points="256.94 155.32 256.94 135.12 206.76 135.12 206.76 169.32 256.94 169.32 281.96 169.32 281.96 155.32 256.94 155.32" fill="#ab605d"/><rect x="47.38" y="21.58" width="145.39" height="104.1" rx="5.87" fill="#1d1d1b" opacity="0.5"/><rect x="44.92" y="19.17" width="145.39" height="104.1" rx="5.87" fill="#fff"/><rect x="55.65" y="44.61" width="118.16" height="14.81" fill="#414040"/><rect x="55.65" y="66.22" width="95.18" height="14.81" fill="#ab605d"/><rect x="55.34" y="26.11" width="45.57" height="12.95" fill="#690c07"/><rect x="55.65" y="85.31" width="78.23" height="32.08" fill="#706f6f"/></g></g></svg>