<?xml version="1.0" encoding="utf-8"?>
<!-- Generator: Adobe Illustrator 19.0.0, SVG Export Plug-In . SVG Version: 6.00 Build 0)  -->
<svg version="1.1" id="LOGO" xmlns="http://www.w3.org/2000/svg" xmlns:xlink="http://www.w3.org/1999/xlink" x="0px" y="0px"
	 viewBox="-301 284 238.2 27.3" style="enable-background:new -301 284 238.2 27.3;" xml:space="preserve">
<style type="text/css">
	.st0{fill:#9E625F;}
	.st1{fill:#424242;}
	.st2{fill:#212426;}
</style>
<title>logo</title>
<path id="_Trazado_" class="st0" d="M-269.5,290.3c-0.5,0-1.1-0.1-1.6-0.2c-0.4-0.1-0.8-0.3-1.1-0.6c-0.3-0.2-0.5-0.5-0.6-0.8
	c-0.3-0.7-0.3-1.4,0-2.1c0.1-0.3,0.4-0.6,0.6-0.9c0.3-0.3,0.7-0.5,1.1-0.6c1.1-0.3,2.2-0.3,3.2,0c0.4,0.1,0.8,0.3,1.1,0.6
	c0.3,0.2,0.5,0.5,0.6,0.8c0.3,0.7,0.3,1.4,0,2.1c-0.1,0.3-0.4,0.6-0.6,0.8c-0.3,0.3-0.7,0.4-1.1,0.6
	C-268.4,290.2-268.9,290.3-269.5,290.3z"/>
<g>
	<path id="_Trazado_compuesto_" class="st1" d="M-301,292.4h6.1l0.6,1.8c0.8-0.6,1.7-1.2,2.7-1.5c0.9-0.3,1.9-0.5,2.9-0.5
		c0.7,0,1.4,0.2,2.1,0.5c0.6,0.4,1.2,0.9,1.5,1.6c0.4-0.3,0.8-0.6,1.3-0.8c0.5-0.3,0.9-0.5,1.4-0.7c0.5-0.2,1-0.4,1.5-0.5
		c0.5-0.1,1.1-0.2,1.6-0.2c0.6,0,1.1,0.1,1.6,0.3c0.5,0.2,1,0.5,1.3,0.9c0.4,0.5,0.7,1,0.9,1.6c0.2,0.7,0.3,1.5,0.3,2.3v7.8h-6.8
		v-8.2c0-0.4-0.1-0.7-0.3-1c-0.2-0.2-0.5-0.3-0.9-0.3c-0.2,0-0.4,0-0.7,0.1c-0.3,0.1-0.5,0.2-0.8,0.4v9h-6.7v-8.2
		c0-0.4-0.1-0.7-0.3-1c-0.2-0.2-0.5-0.3-0.8-0.3s-0.6,0.1-0.8,0.2c-0.3,0.1-0.5,0.3-0.8,0.5v8.8h-6.9V292.4z"/>
	<rect id="_Trazado_2" x="-272.9" y="292.4" class="st1" width="6.9" height="12.6"/>
	<path id="_Trazado_compuesto_2" class="st1" d="M-264,303.8c0-0.7,0.2-1.3,0.5-1.9s0.8-1.2,1.3-1.6c-0.7-0.4-1.3-0.9-1.8-1.6
		c-0.4-0.6-0.6-1.3-0.6-2.1c0-0.7,0.2-1.3,0.6-1.9c0.4-0.6,1-1.1,1.6-1.4c0.8-0.4,1.7-0.7,2.6-0.9c1.2-0.2,2.4-0.4,3.6-0.3
		c0.4,0,0.9,0,1.3,0v-1.6c0-0.5,0.1-1.1,0.2-1.6c0.2-0.4,0.4-0.9,0.7-1.2c0.3-0.4,0.7-0.6,1.2-0.8c0.5-0.2,1.1-0.3,1.7-0.3
		c0.5,0,1.1,0.1,1.6,0.3c0.4,0.1,0.8,0.4,1.2,0.7c0.3,0.3,0.6,0.6,0.7,1c0.2,0.4,0.3,0.8,0.3,1.2c0,0.4-0.1,0.8-0.2,1.1
		c-0.1,0.3-0.3,0.6-0.6,0.9c-0.2,0.2-0.5,0.4-0.8,0.6c-0.3,0.1-0.5,0.2-0.8,0.2l-3-4l0,0v4c1.3,0.2,2.5,0.7,3.6,1.6
		c0.8,0.7,1.3,1.7,1.3,2.7c0,0.7-0.2,1.4-0.6,2c-0.4,0.6-1,1.1-1.6,1.5c-0.8,0.5-1.7,0.8-2.6,1c-1.2,0.2-2.3,0.4-3.5,0.3
		c-0.9,0-1.7-0.1-2.6-0.2c-0.7-0.1-1.4-0.3-2.1-0.5c-0.1,0.2-0.1,0.4-0.1,0.6c0,0.2,0.1,0.4,0.2,0.6c0.2,0.2,0.4,0.4,0.7,0.4
		c0.5,0.1,1,0.2,1.4,0.3c0.6,0,1.5,0.1,2.5,0.1h3.1c0.9,0,1.7,0.1,2.6,0.3c0.6,0.2,1.2,0.4,1.8,0.8c0.4,0.3,0.8,0.7,1,1.2
		c0.5,1.1,0.4,2.3-0.2,3.3c-0.4,0.6-1,1.1-1.6,1.5c-0.9,0.5-1.8,0.8-2.7,1c-1.3,0.2-2.6,0.4-3.9,0.3c-0.8,0-1.7,0-2.5-0.1
		c-0.8-0.1-1.5-0.2-2.2-0.4c-0.6-0.1-1.3-0.3-1.9-0.5c-0.5-0.2-1-0.4-1.5-0.6l1-1.9c0.5,0.2,1.1,0.4,1.6,0.6s1.1,0.3,1.6,0.4
		c0.6,0.1,1.1,0.2,1.7,0.2s1.2,0.1,1.8,0.1c0.6,0,1.1,0,1.7-0.1c0.3,0,0.7-0.1,1-0.2c0.2-0.1,0.3-0.2,0.5-0.3
		c0.1-0.1,0.1-0.2,0.1-0.4c0-0.2-0.1-0.4-0.4-0.5c-0.4-0.2-0.8-0.2-1.2-0.2h-4c-0.8,0-1.6-0.1-2.4-0.3c-0.6-0.1-1.2-0.4-1.7-0.7
		C-263.6,305.8-264.1,304.9-264,303.8z M-256.2,299.2c0.2,0,0.4,0,0.5-0.1c0.2-0.1,0.3-0.2,0.4-0.4c0.1-0.2,0.2-0.5,0.2-0.8
		c0.1-0.4,0.1-0.8,0.1-1.2c0-0.4,0-0.7-0.1-1.1c0-0.2-0.1-0.5-0.2-0.7c-0.1-0.2-0.2-0.3-0.4-0.4c-0.3-0.1-0.7-0.1-1.1,0
		c-0.2,0.1-0.3,0.2-0.4,0.4c-0.1,0.2-0.2,0.5-0.2,0.7c-0.1,0.4-0.1,0.8-0.1,1.1c0,0.4,0,0.8,0.1,1.2c0,0.3,0.1,0.5,0.2,0.8
		c0.1,0.2,0.2,0.3,0.4,0.4C-256.6,299.2-256.4,299.2-256.2,299.2z"/>
	<path id="_Trazado_compuesto_3" class="st1" d="M-246.4,292.4h6.9v7.7c0,0.3,0,0.6,0.1,0.8c0,0.2,0.1,0.4,0.3,0.6
		c0.1,0.1,0.3,0.2,0.4,0.3c0.2,0.1,0.4,0.1,0.6,0.1c0.3,0,0.5,0,0.8-0.2c0.3-0.1,0.5-0.3,0.7-0.5v-8.8h6.9V305h-6.1l-0.6-1.8
		c-0.7,0.7-1.6,1.3-2.5,1.6c-0.9,0.3-1.8,0.5-2.7,0.5c-1.3,0.1-2.6-0.4-3.6-1.2c-0.9-1-1.4-2.4-1.3-3.8L-246.4,292.4L-246.4,292.4z"
		/>
	<path id="_Trazado_compuesto_4" class="st1" d="M-228.2,298.6c0-1.3,0.4-2.6,1.3-3.6c0.4-0.5,0.9-0.9,1.4-1.3
		c0.6-0.4,1.2-0.7,1.8-0.9c0.6-0.2,1.3-0.4,2-0.5c0.7-0.1,1.4-0.2,2.1-0.2c0.9,0,1.7,0.1,2.6,0.3c0.7,0.2,1.4,0.4,2.1,0.8
		c1.1,0.6,2,1.5,2.7,2.5c0.3,0.5,0.5,1,0.6,1.5c0.2,0.5,0.2,1,0.3,1.6l-9.6,1.2c0.1,0.8,0.5,1.6,1.1,2.2c0.7,0.5,1.5,0.8,2.4,0.8
		c0.5,0,1-0.1,1.5-0.2c0.4-0.1,0.8-0.3,1.1-0.5l1,1.8c-0.3,0.2-0.7,0.3-1,0.5c-0.4,0.2-0.8,0.3-1.2,0.4c-0.5,0.1-1,0.2-1.5,0.3
		c-0.6,0.1-1.2,0.1-1.8,0.1c-1.4,0-2.7-0.2-4-0.5c-1-0.3-1.9-0.8-2.8-1.4c-0.7-0.6-1.3-1.3-1.6-2.1
		C-228,300.3-228.2,299.5-228.2,298.6z M-217.5,297.5c0.1-0.8-0.1-1.6-0.4-2.4c-0.2-0.5-0.7-0.8-1.2-0.8c-0.3,0-0.5,0.1-0.8,0.2
		c-0.3,0.2-0.5,0.4-0.6,0.6c-0.2,0.3-0.3,0.7-0.4,1.1c-0.1,0.5-0.2,1.1-0.2,1.6L-217.5,297.5z"/>
	<path id="_Trazado_compuesto_5" class="st1" d="M-210.2,284h6.9v21h-6.9V284z"/>
</g>
<path id="_Trazado_compuesto_6" class="st2" d="M-201.5,284h6.9v9.9c0.3-0.2,0.5-0.5,0.8-0.7c0.7-0.5,1.5-0.8,2.4-1
	c0.5-0.1,0.9-0.2,1.4-0.2c0.9,0,1.8,0.1,2.7,0.4c0.8,0.3,1.6,0.7,2.2,1.2c0.6,0.6,1.1,1.2,1.5,2c0.4,0.9,0.6,1.9,0.5,2.8
	c0,0.9-0.2,1.8-0.5,2.7c-0.3,0.8-0.8,1.5-1.5,2.1c-0.7,0.6-1.5,1-2.3,1.3c-1,0.3-2,0.5-3.1,0.5c-0.8,0-1.7-0.1-2.5-0.3
	c-0.7-0.2-1.3-0.5-1.9-0.9l-0.4,1h-6.3L-201.5,284L-201.5,284z M-194.6,302.4c0.2,0.2,0.4,0.3,0.7,0.4c0.2,0.1,0.5,0.1,0.8,0.2
	c0.4,0,0.8-0.1,1.2-0.2c0.4-0.2,0.7-0.4,0.9-0.7c0.3-0.4,0.5-0.8,0.6-1.3c0.2-0.6,0.2-1.2,0.2-1.8s-0.1-1.3-0.2-1.9
	c-0.1-0.5-0.3-0.9-0.6-1.3c-0.2-0.3-0.5-0.6-0.9-0.7c-0.4-0.2-0.7-0.2-1.1-0.2c-0.3,0-0.6,0.1-0.9,0.2c-0.3,0.1-0.5,0.2-0.8,0.4
	L-194.6,302.4L-194.6,302.4z"/>
<path id="_Trazado_compuesto_7" class="st2" d="M-182.5,301c0-0.6,0.1-1.2,0.4-1.7c0.3-0.5,0.7-1,1.2-1.4c0.6-0.4,1.2-0.7,1.8-0.9
	c0.8-0.2,1.6-0.3,2.4-0.3s1.7,0.1,2.5,0.3c0.7,0.2,1.3,0.4,1.9,0.8v-0.1c0-0.5-0.1-1-0.2-1.5c-0.2-0.8-0.8-1.4-1.6-1.6
	c-0.5-0.1-1-0.2-1.5-0.2s-1.1,0-1.6,0.1s-1,0.2-1.5,0.4l-0.9-1.7c0.9-0.4,1.9-0.7,2.9-0.8c1-0.2,2-0.3,3.1-0.3
	c1.2,0,2.4,0.1,3.6,0.4c0.9,0.2,1.8,0.6,2.6,1.2c0.7,0.5,1.2,1.2,1.6,1.9c0.4,0.9,0.6,1.8,0.5,2.7v6.7h-6.4l-0.5-1.2
	c-0.3,0.2-0.6,0.4-0.9,0.6c-0.4,0.2-0.7,0.3-1.1,0.5c-0.4,0.1-0.9,0.2-1.3,0.3c-0.5,0.1-1,0.1-1.5,0.1c-0.7,0-1.5-0.1-2.2-0.4
	c-0.6-0.2-1.2-0.5-1.7-0.9s-0.8-0.8-1.1-1.3C-182.3,302.1-182.5,301.6-182.5,301z M-175.4,300.7c0,0.4,0.1,0.8,0.4,1.1
	c0.3,0.3,0.8,0.5,1.2,0.4c0.3,0,0.5,0,0.8-0.1s0.5-0.2,0.7-0.4v-2.2c-0.4-0.3-0.9-0.4-1.4-0.4s-0.9,0.1-1.3,0.4
	C-175.2,299.9-175.4,300.3-175.4,300.7L-175.4,300.7z"/>
<path id="_Trazado_compuesto_8" class="st2" d="M-163.3,292.4h6.9v7.7c0,0.3,0,0.6,0.1,0.8c0,0.2,0.1,0.4,0.3,0.6
	c0.1,0.1,0.3,0.2,0.4,0.3c0.2,0.1,0.4,0.1,0.6,0.1c0.3,0,0.5,0,0.8-0.2c0.3-0.1,0.5-0.3,0.7-0.5v-8.8h6.9V305h-6.1l-0.6-1.8
	c-0.7,0.7-1.6,1.3-2.5,1.6c-0.9,0.3-1.8,0.5-2.7,0.5c-1.3,0.1-2.6-0.4-3.6-1.2c-0.9-1.1-1.4-2.4-1.3-3.8L-163.3,292.4L-163.3,292.4z
	"/>
<path id="_Trazado_compuesto_9" class="st2" d="M-144.4,292.4h6.1l0.6,1.8c0.8-0.6,1.8-1.2,2.7-1.6c0.9-0.3,1.9-0.5,2.9-0.5
	c0.7,0,1.4,0.2,2.1,0.5c0.6,0.4,1.2,0.9,1.5,1.6c0.4-0.3,0.8-0.6,1.3-0.8c0.5-0.3,0.9-0.5,1.4-0.7c0.5-0.2,1-0.4,1.5-0.5
	c0.5-0.1,1.1-0.2,1.7-0.2c0.6,0,1.1,0.1,1.6,0.3c0.5,0.2,1,0.5,1.3,0.9c0.4,0.5,0.7,1,0.9,1.6c0.2,0.7,0.3,1.5,0.3,2.3v7.9h-6.9
	v-8.2c0-0.4-0.1-0.7-0.3-1c-0.2-0.2-0.5-0.3-0.9-0.3c-0.2,0-0.4,0-0.7,0.1s-0.5,0.2-0.8,0.4v9h-6.9v-8.2c0-0.4-0.1-0.7-0.3-1
	c-0.2-0.2-0.5-0.3-0.9-0.3c-0.3,0-0.6,0.1-0.8,0.2c-0.3,0.1-0.5,0.3-0.8,0.5v8.8h-6.9L-144.4,292.4L-144.4,292.4z"/>
<path id="_Trazado_compuesto_10" class="st2" d="M-117.1,301c0-0.6,0.1-1.2,0.4-1.7c0.3-0.5,0.7-1,1.2-1.4c0.6-0.4,1.2-0.7,1.8-0.9
	c0.8-0.2,1.6-0.3,2.4-0.3c0.8,0,1.7,0.1,2.5,0.3c0.7,0.2,1.3,0.4,1.9,0.8v-0.1c0-0.5-0.1-1-0.2-1.5c-0.2-0.8-0.8-1.4-1.6-1.6
	c-0.5-0.1-1-0.2-1.5-0.2s-1.1,0-1.6,0.1s-1,0.2-1.5,0.4l-0.9-1.7c0.9-0.4,1.9-0.7,2.9-0.8c1-0.2,2.1-0.2,3.1-0.2
	c1.2,0,2.4,0.1,3.6,0.4c0.9,0.2,1.8,0.6,2.6,1.2c0.7,0.5,1.2,1.2,1.6,1.9c0.4,0.9,0.6,1.8,0.6,2.7v6.6h-6.4l-0.4-1.2
	c-0.3,0.2-0.6,0.4-0.9,0.6c-0.4,0.2-0.7,0.3-1.1,0.5c-0.4,0.1-0.9,0.2-1.3,0.3c-0.5,0.1-1,0.1-1.5,0.1c-0.8,0-1.5-0.1-2.3-0.3
	c-0.6-0.2-1.2-0.5-1.7-0.9s-0.8-0.8-1.1-1.3C-116.9,302.2-117.1,301.6-117.1,301z M-110,300.7c0,0.4,0.1,0.8,0.4,1.1
	c0.3,0.3,0.8,0.5,1.2,0.4c0.3,0,0.5,0,0.8-0.1s0.5-0.2,0.7-0.4v-2.2c-0.4-0.3-0.9-0.4-1.4-0.4s-0.9,0.1-1.3,0.4
	C-109.8,299.9-110,300.3-110,300.7L-110,300.7z"/>
<path id="_Trazado_compuesto_11" class="st2" d="M-97.8,292.4h6.1l0.6,1.8c0.8-0.6,1.8-1.2,2.7-1.6c0.9-0.3,1.9-0.5,2.9-0.5
	c0.6,0,1.1,0.1,1.6,0.3c0.5,0.2,0.9,0.5,1.3,0.9c0.4,0.5,0.7,1,0.9,1.6c0.2,0.7,0.3,1.5,0.3,2.3v7.8h-6.9v-8.2c0-0.4-0.1-0.7-0.3-1
	c-0.2-0.2-0.5-0.3-0.9-0.3c-0.3,0-0.6,0.1-0.8,0.2c-0.3,0.1-0.5,0.3-0.8,0.5v8.8H-98L-97.8,292.4L-97.8,292.4z"/>
<path id="_Trazado_compuesto_12" class="st2" d="M-79.3,292.4h6.1l0.6,1.8c0.8-0.6,1.8-1.2,2.7-1.6c0.9-0.3,1.9-0.5,2.9-0.5
	c0.6,0,1.1,0.1,1.6,0.3c0.5,0.2,0.9,0.5,1.3,0.9c0.4,0.5,0.7,1,0.9,1.6c0.2,0.7,0.3,1.5,0.3,2.3v7.8h-6.9v-8.2c0-0.4-0.1-0.7-0.3-1
	c-0.2-0.2-0.5-0.3-0.9-0.3c-0.3,0-0.6,0.1-0.8,0.2c-0.3,0.1-0.5,0.3-0.8,0.5v8.8h-6.9L-79.3,292.4L-79.3,292.4z"/>
</svg>
