<svg xmlns="http://www.w3.org/2000/svg" viewBox="0 0 289.81 181.15"><title>sitio-web_1</title><g id="Capa_2" data-name="Capa 2"><g id="sitio_web" data-name="sitio web"><polygon points="133.88 179.26 93.25 179.26 98.92 134.67 128.2 134.67 133.88 179.26" fill="#878787"/><rect width="227.13" height="144" rx="12" fill="#3c3c3b"/><rect x="13.64" y="12" width="199.85" height="120" fill="#aed8e4"/><path d="M164.39,180.44c0-.07,0-.14,0-.21,0-6.25-4.65-11.36-7.89-11.36H70.62c-3.24,0-7.89,5.11-7.89,11.36v.21Z" fill="#3c3c3b"/><circle cx="23.76" cy="138.33" r="2.66" fill="#3aaa35"/><circle cx="33.01" cy="138.33" r="2.66" fill="#fff"/><circle cx="42.26" cy="138.33" r="2.66" fill="#fff"/><rect x="18.64" y="17.05" width="188.95" height="16.15" fill="#706f6f"/><rect x="18.64" y="37.13" width="44.09" height="89.02" fill="#cececd"/><rect x="68.38" y="37.13" width="61.09" height="8.31" fill="#690c07"/><rect x="68.38" y="48.69" width="138.11" height="25.53" fill="#fff"/><rect x="67.29" y="79.24" width="43.64" height="46.91" fill="#ab605d"/><rect x="116.38" y="79.24" width="45.38" height="46.91" fill="#ab605d"/><rect x="167.44" y="79.24" width="39.05" height="46.91" fill="#ab605d"/><rect x="182.6" y="64.15" width="72.68" height="116.29" rx="6.47" fill="#3c3c3b" stroke="#fff" stroke-miterlimit="10"/><rect x="188.72" y="71.88" width="60.45" height="91.6" fill="#aed8e4"/><circle cx="218.95" cy="172.95" r="4.08" fill="#fff"/><rect x="211.16" y="67.23" width="15.56" height="1.75" rx="0.87" fill="#fff"/><rect x="190.56" y="74.23" width="56.76" height="13.09" fill="#706f6f"/><rect x="190.56" y="89.32" width="56.76" height="17.61" fill="#cececd"/><rect x="190.56" y="108.93" width="56.76" height="8.31" fill="#690c07"/><rect x="190.56" y="138.96" width="26.81" height="21.16" fill="#ab605d"/><rect x="220.89" y="138.96" width="25.5" height="21.16" fill="#ab605d"/><rect x="190.56" y="119.24" width="56.76" height="15.64" fill="#fff"/><rect x="243.49" y="107.35" width="45.82" height="73.31" rx="6.47" fill="#3c3c3b" stroke="#fff" stroke-miterlimit="10"/><rect x="247.35" y="112.22" width="38.11" height="57.75" fill="#aed8e4"/><circle cx="266.4" cy="175.93" r="2.57" fill="#fff"/><rect x="248.28" y="113.14" width="36.24" height="9.7" fill="#706f6f"/><rect x="248.28" y="159.43" width="36.24" height="9.03" fill="#ab605d"/><rect x="248.28" y="135.27" width="36.24" height="22.12" fill="#fff"/><rect x="275.89" y="124.84" width="8.63" height="8.43" fill="#cececd"/><rect x="248.55" y="124.84" width="26.48" height="8.43" fill="#690c07"/></g></g></svg>