<?xml version="1.0" encoding="utf-8"?>
<!-- Generator: Adobe Illustrator 23.0.3, SVG Export Plug-In . SVG Version: 6.00 Build 0)  -->
<svg version="1.1" id="Capa_10" xmlns="http://www.w3.org/2000/svg" xmlns:xlink="http://www.w3.org/1999/xlink" x="0px" y="0px"
	 viewBox="0 0 129.9 129.9" style="enable-background:new 0 0 129.9 129.9;" xml:space="preserve">
<style type="text/css">
	.st0{fill:#D291FF;}
	.st1{fill:#1F0040;}
</style>
<title>aef</title>
<rect class="st0" width="129.9" height="129.9"/>
<rect x="5.7" y="5.7" transform="matrix(-1.836970e-16 1 -1 -1.836970e-16 129.8903 1.153420e-04)" class="st1" width="118.6" height="118.6"/>
<g>
	<path class="st0" d="M42.3,37.6v2.6L27.7,91.3h8.6l4-15.1h15.4l4.2,15.1h9.3L53.5,37.6H42.3z M42.3,68l5.5-22.6l6,22.6H42.3
		L42.3,68z"/>
	<path class="st0" d="M87.6,51c-8.6,0-16.3,7-16.3,21.9s10.2,19.3,17.3,19.3S99.1,90,99.1,90v-7.3c0,0-2.1,1.5-10.2,1.5
		c-8.8-0.1-8.9-11-8.9-11l21.6-0.2c0,0,0.1,0,0.5-6.2C102.6,58.1,96.2,51,87.6,51z M93.6,66.5H80.3c0,0,0-8.5,7.1-8.5
		S93.6,66.5,93.6,66.5L93.6,66.5z"/>
</g>
</svg>
