<?xml version="1.0" encoding="utf-8"?>
<!-- Generator: Adobe Illustrator 19.0.0, SVG Export Plug-In . SVG Version: 6.00 Build 0)  -->
<svg version="1.1" id="Capa_1" xmlns="http://www.w3.org/2000/svg" xmlns:xlink="http://www.w3.org/1999/xlink" x="0px" y="0px"
	 viewBox="-73 164.9 448 512" style="enable-background:new -73 164.9 448 512;" xml:space="preserve">
<path style="fill:#1769FF;" d="M113.5,457.9c0,19.3-14,25.4-31.2,25.4H37.2v-52.9h46C101.8,430.5,113.5,438.2,113.5,457.9
	L113.5,457.9z M105.8,375.6c0-17.7-13.7-21.9-28.9-21.9H37.3v44.8H80C95.1,398.5,105.8,391.9,105.8,375.6L105.8,375.6z M238.1,398.8
	c-18.3,0-30.5,11.4-31.7,29.7h62.2C266.9,410,257.3,398.8,238.1,398.8L238.1,398.8z M375,244.9v352c0,26.5-21.5,48-48,48H-25
	c-26.5,0-48-21.5-48-48v-352c0-26.5,21.5-48,48-48h352C353.5,196.9,375,218.4,375,244.9z M198.7,349.9h77.8V331h-77.8V349.9z
	 M155.7,460.2c0-24.1-11.4-44.9-35-51.6c17.2-8.2,26.2-17.7,26.2-37c0-38.2-28.5-47.5-61.4-47.5H-5v192h93.1
	C123,515.9,155.7,499.2,155.7,460.2z M307,445.4c0-41.1-24.1-75.4-67.6-75.4c-42.4,0-71.1,31.8-71.1,73.6c0,43.3,27.3,73,71.1,73
	c33.2,0,54.7-14.9,65.1-46.8h-33.7c-3.7,11.9-18.6,18.1-30.2,18.1c-22.4,0-34.1-13.1-34.1-35.3h100.2
	C306.8,450.3,307,447.8,307,445.4L307,445.4z"/>
</svg>
