<?xml version="1.0" encoding="utf-8"?>
<!-- Generator: Adobe Illustrator 23.0.3, SVG Export Plug-In . SVG Version: 6.00 Build 0)  -->
<svg version="1.1" id="Capa_4" xmlns="http://www.w3.org/2000/svg" xmlns:xlink="http://www.w3.org/1999/xlink" x="0px" y="0px"
	 viewBox="0 0 129.9 129.9" style="enable-background:new 0 0 129.9 129.9;" xml:space="preserve">
<style type="text/css">
	.st0{fill:#FFFFFF;}
	.st1{fill:#2B91C0;}
	.st2{fill:#0862A2;}
</style>
<title>css</title>
<g>
	<polygon class="st0" points="29.9,39.7 37.5,109.4 65,119.1 96.9,109.7 103.8,39.7 	"/>
	<polygon class="st1" points="51.8,17.4 51.8,11.9 43.6,11.9 43.6,5.5 51.8,5.5 51.8,0 43.6,0 37.5,0 37.5,5.5 37.5,11.9 37.5,17.4 
		43.6,17.4 	"/>
	<polygon class="st1" points="71.7,11.7 66.6,5.7 71.7,5.7 71.7,0 58.3,0 58.3,5.7 63.7,11.7 58.3,11.7 58.3,17.4 71.7,17.4 	"/>
	<polygon class="st1" points="92,11.7 86.9,5.7 92,5.7 92,0 78.5,0 78.5,5.7 84,11.7 78.5,11.7 78.5,17.4 92,17.4 	"/>
	<path class="st2" d="M26.8,118.3l37.5,11.6l40.1-10.6l7.9-94.4H17.5L26.8,118.3z M65,32.5h39.6l-8,80.8L65,122.1v-11.3l-23.4-6.8
		L39.4,86l12.4-0.2l0.7,8.4l12.5,4V80.1H39.4l-1.9-11.8L65,56.5l0,0l-27.4,0.2L36,44.9h29V32.5z"/>
	<polygon class="st1" points="64.9,56.5 64.9,56.5 65,56.5 	"/>
	<polygon class="st1" points="93.1,56.5 66.4,68.1 92,68.1 89,104.1 65,110.7 64.9,110.7 64.9,122 96.6,113.3 104.6,32.5 64.9,32.5 
		64.9,44.9 93.9,44.9 	"/>
	<polygon class="st1" points="78.5,95.3 79.4,80.1 64.9,80.1 64.9,98.3 65,98.3 	"/>
</g>
</svg>
