<?xml version="1.0" encoding="utf-8"?>
<!-- Generator: Adobe Illustrator 19.0.0, SVG Export Plug-In . SVG Version: 6.00 Build 0)  -->
<svg version="1.1" id="Capa_1" xmlns="http://www.w3.org/2000/svg" xmlns:xlink="http://www.w3.org/1999/xlink" x="0px" y="0px"
	 viewBox="-73 164.9 448 512" style="enable-background:new -73 164.9 448 512;" xml:space="preserve">
<path style="fill:#3B5998;" d="M375,244.9v352c0,26.5-21.5,48-48,48h-85.3V467.7h60.6l8.7-67.6h-69.3v-43.2
	c0-19.6,5.4-32.9,33.5-32.9H311v-60.4c-6.2-0.8-27.4-2.7-52.2-2.7c-51.6,0-87,31.5-87,89.4v49.9H111v67.6h60.9v177.1H-25
	c-26.5,0-48-21.5-48-48v-352c0-26.5,21.5-48,48-48h352C353.5,196.9,375,218.4,375,244.9z"/>
</svg>
