<?xml version="1.0" encoding="utf-8"?>
<!-- Generator: Adobe Illustrator 19.0.0, SVG Export Plug-In . SVG Version: 6.00 Build 0)  -->
<svg version="1.1" id="Capa_1" xmlns="http://www.w3.org/2000/svg" xmlns:xlink="http://www.w3.org/1999/xlink" x="0px" y="0px"
	 viewBox="-349 227.6 141.7 141.7" style="enable-background:new -349 227.6 141.7 141.7;" xml:space="preserve">
<style type="text/css">
	.st0{fill:#FFFFFF;}
	.st1{fill:#FF502E;}
</style>
<path class="st0" d="M-284.8,230.6l-61.7,61.7l77.6,71.6c0,0,58.4-58.4,58.8-58.8C-209.7,304.7-284.8,230.6-284.8,230.6z"/>
<path id="XMLID_264_" class="st1" d="M-303.9,249.5c0.1,0.1,0.1,0.1,0.3,0.3c5.2,5.2,10.3,10.3,15.5,15.5c0.1,0.1,0.3,0.4,0.1,0.7
	c-2.1,5.5,0.4,11.4,5.8,13.7c0.3,0.1,0.3,0.3,0.3,0.4c0,12.7,0,25.4,0,38.2c0,0.3-0.1,0.3-0.3,0.4c-3.5,1.8-5.8,4.6-6.3,8.4
	c-0.9,5.9,3.2,11.2,8.7,12.2c5.9,1,11.5-2.7,12.7-8.4c1-4.6-1.2-9.4-5.5-11.8c-0.3-0.1-0.4-0.3-0.4-0.7c0-12.5,0-24.9,0-37.5
	c0-0.1,0-0.3,0-0.4c0.1,0.1,0.1,0.1,0.3,0.3c4.7,4.7,9.3,9.3,14,14c0.3,0.3,0.3,0.4,0.1,0.7c-2.1,5.9,1,12.4,7.1,14.2
	c6,1.8,12.5-2.1,13.7-8.3c1.2-6-2.5-11.7-8.6-13c-1.8-0.3-3.5-0.3-5.3,0.3c-0.3,0.1-0.4,0-0.6-0.1c-5-5-10.2-10.2-15.2-15.2
	c-0.1-0.1-0.1-0.4-0.1-0.6c1.8-5.9-1.6-12.1-7.7-13.7c-1.9-0.4-3.8-0.4-5.8,0.1c-0.3,0.1-0.4,0-0.6-0.1
	c-5.1-5.2-10.4-10.3-15.5-15.5c-0.1-0.1-0.1-0.1-0.3-0.3c0.1-0.1,0.1-0.1,0.3-0.3c4.1-4.1,8.2-8.2,12.4-12.4c1.5-1.5,3.1-2.4,5-2.7
	c2.9-0.4,5.5,0.3,7.7,2.2c0.1,0.1,0.3,0.3,0.6,0.6c20.5,20.5,40.9,41,61.3,61.3c1.5,1.5,2.4,3.1,2.7,5c0.4,2.9-0.3,5.5-2.2,7.7
	c-0.1,0.1-0.3,0.3-0.4,0.4c-20.4,20.4-40.7,40.7-61.2,61.2c-1.3,1.3-2.9,2.4-4.9,2.7c-3.1,0.6-5.8-0.1-8.1-2.4
	c-0.9-0.7-1.6-1.6-2.4-2.4c-19.8-19.6-39.7-39.5-59.5-59.2c-1.5-1.5-2.4-3.1-2.7-5c-0.4-2.9,0.3-5.6,2.4-7.7
	c3.8-4,7.8-7.8,11.8-11.8c10.2-10.2,20.4-20.4,30.5-30.5C-304,249.7-304,249.7-303.9,249.5z"/>
</svg>
