<?xml version="1.0" encoding="utf-8"?>
<!-- Generator: Adobe Illustrator 23.0.3, SVG Export Plug-In . SVG Version: 6.00 Build 0)  -->
<svg version="1.1" id="Capa_5" xmlns="http://www.w3.org/2000/svg" xmlns:xlink="http://www.w3.org/1999/xlink" x="0px" y="0px"
	 viewBox="0 0 129.9 129.9" style="enable-background:new 0 0 129.9 129.9;" xml:space="preserve">
<style type="text/css">
	.st0{fill:#FFFFFF;}
	.st1{fill:#CA613B;}
	.st2{fill:#CE7041;}
</style>
<title>html</title>
<g>
	<polygon class="st0" points="26.8,38.6 35.4,107 63.2,118.8 96.6,110.2 103.7,39.1 	"/>
	<path class="st1" d="M26.9,118.3l37.3,11.6l39.9-10.6l7.9-94H17.6L26.9,118.3z M64.8,32.9h39.5l-7.9,80.5L64.8,122v-11.8l-24.1-6.7
		l-1.5-18.3L50.6,85l1,8.8l13.2,4v-18H38.5l-3.6-35h29.8V32.9z"/>
	<polygon class="st1" points="48.5,56.3 49.7,67.7 64.8,67.7 64.8,56.3 	"/>
	<polygon class="st2" points="79.4,79.7 64.8,79.7 64.8,97.7 77.9,94.4 	"/>
	<polygon class="st2" points="93.4,56.3 64.8,56.3 64.8,67.7 92.4,67.7 89.3,103 64.8,110.2 64.8,122.1 96.4,113.4 104.3,32.9 
		64.8,32.9 64.8,44.7 94.7,44.7 	"/>
	<polygon class="st0" points="51.6,93.8 50.6,85 39.3,85.2 40.7,103.5 64.8,110.2 64.8,97.7 	"/>
	<polygon class="st2" points="32.5,11.4 38.3,11.4 38.3,17.3 44,17.3 44,0 38.3,0 38.3,5.6 32.5,5.6 32.5,0 26.8,0 26.8,17.3 
		32.5,17.3 	"/>
	<polygon class="st2" points="52.3,17.3 58.2,17.3 58.2,5.6 63.2,5.6 63.2,0 47,0 47,5.6 52.3,5.6 	"/>
	<polygon class="st2" points="71.6,8.7 76.1,14.7 80.5,8.7 80.5,17.3 85.8,17.3 85.8,0 80.5,0 76.3,5.9 71.6,0 66.3,0 66.3,17.3 
		71.6,17.3 	"/>
	<polygon class="st2" points="95.2,17.3 103.7,17.3 103.7,11.6 95.2,11.6 95.2,0 89.6,0 89.6,17.3 93.1,17.3 	"/>
</g>
</svg>
