<?xml version="1.0" encoding="utf-8"?>
<!-- Generator: Adobe Illustrator 23.0.3, SVG Export Plug-In . SVG Version: 6.00 Build 0)  -->
<svg version="1.1" id="Capa_12" xmlns="http://www.w3.org/2000/svg" xmlns:xlink="http://www.w3.org/1999/xlink" x="0px" y="0px"
	 viewBox="0 0 129.9 129.9" style="enable-background:new 0 0 129.9 129.9;" xml:space="preserve">
<style type="text/css">
	.st0{fill:#FF3F94;}
	.st1{fill:#2E0013;}
</style>
<title>ind</title>
<rect class="st0" width="129.9" height="129.9"/>
<rect x="5.7" y="5.7" transform="matrix(-1.836970e-16 1 -1 -1.836970e-16 129.8903 1.153420e-04)" class="st1" width="118.6" height="118.6"/>
<g>
	<rect x="36.3" y="33.7" class="st0" width="12.4" height="61.4"/>
	<path class="st0" d="M81.2,47.8c0,0-27-3.5-27,24.2S78.5,96.2,82,95.8c4.6-0.6,11.6-3.4,11.6-3.4V33.7H81.2V47.8z M81.3,85.8
		c0,0-6.5,3.4-11.7-4s-2.8-19,2.5-23.2c3.7-3,9.2-0.8,9.2-0.8V85.8L81.3,85.8z"/>
</g>
</svg>
