<?xml version="1.0" encoding="utf-8"?>
<!-- Generator: Adobe Illustrator 23.0.3, SVG Export Plug-In . SVG Version: 6.00 Build 0)  -->
<svg version="1.1" id="Capa_3" xmlns="http://www.w3.org/2000/svg" xmlns:xlink="http://www.w3.org/1999/xlink" x="0px" y="0px"
	 viewBox="0 0 130.2 130.2" style="enable-background:new 0 0 130.2 130.2;" xml:space="preserve">
<style type="text/css">
	.st0{fill:#105C96;}
</style>
<title>jquery</title>
<g>
	<path class="st0" d="M76.8,26.4c19,13.8,28.7-1.9,28.7-1.9S94.7,30.7,82,22.3C69.8,14.2,72.5,0,72.5,0S61.9,15.6,76.8,26.4z"/>
	<path class="st0" d="M60.7,49.2c32,21.4,48.9-10.2,48.9-10.2s-13.1,19.7-41.1,3C46.9,29.2,53,5.4,53,5.4S32.9,25.2,60.7,49.2z"/>
	<path class="st0" d="M41.8,75.6C84.5,103.2,106.2,63,106.2,63s-22.6,21.4-55.3,1.3C23.3,47.4,29.7,13.1,29.7,13.1S3.7,51,41.8,75.6
		z"/>
	<polygon class="st0" points="11.9,105.4 18,105.4 19,100.7 13,100.7 	"/>
	<path class="st0" d="M7,124.2c-0.8,0.7-3.6,0.3-3.6,0.3l-0.7,5.6c0,0,7.4,0.4,9.2-1.7c1.8-2.1,5.5-21,5.5-21h-5.5
		C11.9,107.4,7.8,123.6,7,124.2z"/>
	<path class="st0" d="M62.6,100.7l-3.4,15.5h-6c0-0.9-0.1-1.9-0.2-2.8c-0.2-1.3,2.2-12.7,2.2-12.7h-5.5c0,0-2.3,11.7-2.6,15.4
		c-0.1,2.4,1.4,4.7,3.7,5.4c0.8,0.4,12.9,0,12.9,0l4.5-20.8C68,100.7,62.6,100.7,62.6,100.7z"/>
	<path class="st0" d="M109.1,101.4c-0.9-0.3-1.9-0.5-2.8-0.7H93l-4.4,20.7h6l3.3-15.8h12.6C110.5,105.6,109.8,101.7,109.1,101.4z"/>
	<path class="st0" d="M111.9,110.4l-1-3.3h-6.3c0,0,2.6,8.5,2.4,10.7c-0.2,1.3-0.7,2.6-1.5,3.7h6.5c0,0,2.2-5.2,3-6.8
		c0.8-1.6,12.6-17.4,12.6-17.4h-6.7L111.9,110.4z"/>
	<path class="st0" d="M80.7,99.9c-3.4,0.1-6.7,1.5-9.3,3.8c-2.1,2-3.5,8.7-3.7,12.9c-0.3,4.2,5.1,4.9,5.1,4.9h12.7l1-4.9
		c0,0-10.3,0.4-11.7-0.6c-0.9-0.7-1.1-2-0.7-3l13.4,0.1c0,0,1-0.9,1.3-6S84.9,100,80.7,99.9z M82.5,108.5h-7.7
		c0.6-2,2.4-3.3,4.5-3.3c1.6-0.2,3,1,3.2,2.6C82.6,108.1,82.6,108.3,82.5,108.5L82.5,108.5z"/>
	<path class="st0" d="M30.3,95.3c-12.1,4.5-14.4,23.3-5.9,26.1c9.6,0,19.1,0.1,19.1,0.1l1.1-5.1l-2.8-0.3l2.8-8.8
		C44.6,107.4,48,92.7,30.3,95.3z M36.2,116.2c-2.1,0.1-4.3,0.1-6.4,0c-1.7,0-3.2-1.1-3.7-2.8c-0.1-3.1,0.5-6.3,1.7-9.1
		c1.5-3.5,3.3-4.2,7-4c3.3,0.2,3.8,3.9,4,4.5C39.1,105.4,36.2,116.2,36.2,116.2z"/>
</g>
</svg>
