<?xml version="1.0" encoding="utf-8"?>
<!-- Generator: Adobe Illustrator 23.0.3, SVG Export Plug-In . SVG Version: 6.00 Build 0)  -->
<svg version="1.1" id="Capa_15" xmlns="http://www.w3.org/2000/svg" xmlns:xlink="http://www.w3.org/1999/xlink" x="0px" y="0px"
	 viewBox="0 0 129.9 129.9" style="enable-background:new 0 0 129.9 129.9;" xml:space="preserve">
<style type="text/css">
	.st0{fill:#FFFFFF;}
	.st1{fill:#F2D74E;}
	.st2{fill:#D0B73C;}
</style>
<title>js</title>
<g>
	<polygon class="st0" points="22.6,32.5 28.9,114.2 64.9,123.6 96.6,113.3 104.6,32.5 	"/>
	<polygon id="_Trazado_" class="st1" points="56.1,0 62.1,0 62.1,5.5 62.1,11.9 62.1,17.4 56.1,17.4 47.8,17.4 47.8,11.9 56.1,11.9 
		56.1,5.5 	"/>
	<polygon id="_Trazado_2" class="st1" points="82,0 68.6,0 68.6,5.7 74.1,11.7 68.6,11.7 68.6,17.4 82,17.4 82,11.7 76.9,5.7 
		82,5.7 	"/>
	<polygon id="_Trazado_3" class="st2" points="17.5,24.8 26.8,118.3 64.3,129.9 104.4,119.3 112.4,24.8 	"/>
	<polygon id="_Trazado_4" class="st1" points="64.9,32.5 104.6,32.5 96.6,113.3 64.9,122 	"/>
	<polygon id="_Trazado_5" class="st0" points="68.4,43.3 68.4,85.2 87.8,81.6 87.8,91.8 68.4,96.5 69.5,107.8 94.8,101.4 97.4,69.7 
		77.8,72 78,54.5 98.7,54.3 98.7,43.3 	"/>
	<polygon id="_Trazado_6" class="st0" points="50.3,42.8 60.6,42.8 60.6,108.2 31.8,99.9 31.8,88.4 50.6,93.3 	"/>
</g>
</svg>
