<?xml version="1.0" encoding="utf-8"?>
<!-- Generator: Adobe Illustrator 19.0.0, SVG Export Plug-In . SVG Version: 6.00 Build 0)  -->
<svg version="1.1" id="Capa_1" xmlns="http://www.w3.org/2000/svg" xmlns:xlink="http://www.w3.org/1999/xlink" x="0px" y="0px"
	 viewBox="-73 164.9 448 512" style="enable-background:new -73 164.9 448 512;" xml:space="preserve">
<path style="fill:#007BB5;" d="M343,196.9H-41.1c-17.6,0-31.9,14.5-31.9,32.3v383.4c0,17.8,14.3,32.3,31.9,32.3H343
	c17.6,0,32-14.5,32-32.3V229.2C375,211.4,360.6,196.9,343,196.9z M62.4,580.9H-4V367.1h66.5v213.8H62.4z M29.2,337.9
	c-21.3,0-38.5-17.3-38.5-38.5c0-21.2,17.2-38.5,38.5-38.5c21.2,0,38.5,17.3,38.5,38.5C67.7,320.7,50.5,337.9,29.2,337.9z
	 M311.3,580.9h-66.4v-104c0-24.8-0.5-56.7-34.5-56.7c-34.6,0-39.9,27-39.9,54.9v105.8h-66.4V367.1h63.7v29.2h0.9
	c8.9-16.8,30.6-34.5,62.9-34.5c67.2,0,79.7,44.3,79.7,101.9V580.9z"/>
</svg>
