<?xml version="1.0" encoding="utf-8"?>
<!-- Generator: Adobe Illustrator 19.0.0, SVG Export Plug-In . SVG Version: 6.00 Build 0)  -->
<svg version="1.1" id="Capa_14" xmlns="http://www.w3.org/2000/svg" xmlns:xlink="http://www.w3.org/1999/xlink" x="0px" y="0px"
	 viewBox="-231.7 374.7 130 90.1" style="enable-background:new -231.7 374.7 130 90.1;" xml:space="preserve">
<style type="text/css">
	.st0{fill:#FF4081;}
	.st1{fill:#FFFFFF;fill-opacity:0.2;}
	.st2{fill:#FFFFFF;fill-opacity:0.1;}
	.st3{fill-opacity:0.1;}
	.st4{fill-opacity:0.2;}
	.st5{fill-opacity:0.3;}
	.st6{fill-opacity:0.4;}
	.st7{fill-opacity:0.5;}
	.st8{fill:#536DFE;}
	.st9{fill:none;}
	.st10{fill:#303F9F;}
	.st11{fill:#3F51B5;}
	.st12{fill:#7986CB;}
	.st13{fill:#3341FE;}
</style>
<title>ai</title>
<g>
	<path class="st0" d="M-153.7,464.8l-52-90.1h26l52,90.1H-153.7z"/>
	<path class="st1" d="M-153.7,464.8l13-22.5l13,22.5H-153.7L-153.7,464.8z"/>
	<path class="st2" d="M-166.7,442.3l13,22.5l13-22.5L-166.7,442.3L-166.7,442.3z"/>
	<path class="st3" d="M-179.7,419.8l13,22.5l13-22.5H-179.7L-179.7,419.8z"/>
	<path class="st4" d="M-179.7,419.8l13-22.5l13,22.5H-179.7L-179.7,419.8z"/>
	<path class="st5" d="M-192.7,397.2l13,22.5l13-22.5H-192.7L-192.7,397.2z"/>
	<path class="st6" d="M-192.7,397.2l13-22.5l13,22.5H-192.7L-192.7,397.2z"/>
	<path class="st7" d="M-205.7,374.7l13,22.5l13-22.5H-205.7L-205.7,374.7z"/>
	<g>
		<path class="st8" d="M-205.7,464.8l-26-45l13-22.5l39,67.6H-205.7L-205.7,464.8z"/>
		<path class="st1" d="M-205.7,464.8l13-22.5l13,22.5H-205.7L-205.7,464.8z"/>
		<path class="st2" d="M-218.7,442.3l13,22.5l13-22.5H-218.7z"/>
		<path class="st9" d="M-218.7,442.3l13-22.5l13,22.5H-218.7z"/>
		<path class="st3" d="M-231.7,419.8l13,22.5l13-22.5H-231.7L-231.7,419.8z"/>
		<path class="st4" d="M-231.7,419.8l13-22.5l13,22.5H-231.7L-231.7,419.8z"/>
	</g>
	<g>
		<path class="st10" d="M-205.7,419.8l-13-22.5l13-22.5l13,22.5L-205.7,419.8z"/>
		<path class="st4" d="M-192.7,397.2l-13-22.5l-13,22.5H-192.7L-192.7,397.2z"/>
	</g>
	<g>
		<path class="st11" d="M-127.7,464.8l-13-22.5l13-22.5l13,22.5L-127.7,464.8L-127.7,464.8z"/>
		<path class="st4" d="M-114.7,442.3l-13,22.5l-13-22.5L-114.7,442.3L-114.7,442.3z"/>
	</g>
	<g>
		<path class="st12" d="M-114.7,442.3l-39-67.6h26l26,45L-114.7,442.3L-114.7,442.3z"/>
		<path class="st1" d="M-127.7,419.8l13,22.5l13-22.5H-127.7z"/>
		<path class="st2" d="M-127.7,419.8l13-22.5l13,22.5H-127.7z"/>
		<path class="st3" d="M-140.7,397.2l13-22.5l13,22.5H-140.7L-140.7,397.2z"/>
		<path class="st4" d="M-153.7,374.7l13,22.5l13-22.5H-153.7z"/>
	</g>
</g>
<path class="st13" d="M89,504.9c0.4,0,0.8,0.1,1.2,0.1c-0.4,0.3-0.8,0.7-1.3,1C89,505.6,89,505.3,89,504.9z"/>
</svg>
