<?xml version="1.0" encoding="utf-8"?>
<!-- Generator: Adobe Illustrator 23.0.3, SVG Export Plug-In . SVG Version: 6.00 Build 0)  -->
<svg version="1.1" id="Capa_13" xmlns="http://www.w3.org/2000/svg" xmlns:xlink="http://www.w3.org/1999/xlink" x="0px" y="0px"
	 viewBox="0 0 129.9 129.9" style="enable-background:new 0 0 129.9 129.9;" xml:space="preserve">
<style type="text/css">
	.st0{fill:#00C8FF;}
	.st1{fill:#001D26;}
</style>
<title>psd</title>
<rect class="st0" width="129.9" height="129.9"/>
<rect x="5.7" y="5.7" transform="matrix(-1.836970e-16 1 -1 -1.836970e-16 129.8903 1.153420e-04)" class="st1" width="118.6" height="118.6"/>
<g>
	<path class="st0" d="M50,35.3c-6.1-0.9-20.1-0.4-20.1-0.4v59.1h9.2V73.5c0,0,19.3,1.5,25.2-11.9S59.9,36.7,50,35.3z M55.5,54.7
		c-1.5,10.3-9,8.9-10.6,9s-5.7,0-5.7,0V44.3c2-0.4,4-0.6,6.1-0.7C50.4,43.6,56.7,47.3,55.5,54.7z"/>
	<path class="st0" d="M94.6,71.2c-2.8-2.1-13.6-5-11.9-10.7c1.7-5.5,13.7-0.7,13.7-0.7l1.7-8.9c0,0-8.4-2-13.3-1.4
		c-5.3,0.6-9.7,3.6-11.5,8.5c-2.4,6.3-0.6,13.7,6.8,17.3s11.2,5.8,9.2,8.8c-3.8,5.4-15.9,0-15.9,0v9.4c0,0,8.2,1.9,11.9,1.6
		s10.9-0.3,14.1-10C101.7,78.1,97.1,73.1,94.6,71.2z"/>
</g>
</svg>
