<?xml version="1.0" encoding="utf-8"?>
<!-- Generator: Adobe Illustrator 23.0.3, SVG Export Plug-In . SVG Version: 6.00 Build 0)  -->
<svg version="1.1" id="Capa_19" xmlns="http://www.w3.org/2000/svg" xmlns:xlink="http://www.w3.org/1999/xlink" x="0px" y="0px"
	 viewBox="0 0 130.4 130.4" style="enable-background:new 0 0 130.4 130.4;" xml:space="preserve">
<style type="text/css">
	.st0{fill:#E9679D;}
</style>
<title>sass</title>
<path id="_Trazado_compuesto_" class="st0" d="M117.8,72.7h-0.3c-5.4-0.7-10.8,0.1-15.7,2.5c-1.2-2.4-2.4-4.6-2.6-6.1
	c-0.4-1.7-0.4-3.5-0.2-5.2c0.4-1.9,0.9-3.8,1.5-5.6c0-0.2-0.3-1.3-2.9-1.4c-2.6-0.1-4.9,0.5-5.2,1.2c-0.5,1.3-0.8,2.6-1.1,3.9
	c-0.5,2.4-5.3,10.9-8,15.4c-0.8-1.4-1.4-2.9-1.8-4.5c-0.4-1.7-0.4-3.5-0.2-5.2c0.4-1.9,0.9-3.7,1.5-5.6c0-0.2-0.3-1.3-2.9-1.4
	c-2.6-0.1-4.9,0.5-5.2,1.2c-0.3,0.7-0.5,2.3-1.1,3.9c-0.5,1.6-6.9,15.8-8.6,19.5c-0.7,1.5-1.4,3-2.1,4.4l0,0L62.8,90
	c-0.4,0.9-0.7,1.4-0.7,1.4l0,0c-0.2,0.5-0.5,1-0.9,1.3c-0.3-1.3-0.3-2.7,0-4.1c1.1-4.9,3.3-12.6,3.3-12.9c0.2-1-0.4-2-1.4-2.2
	c0,0-0.1,0-0.1,0c-0.9-0.4-2-0.2-2.7,0.5c-0.1,0.1-0.3,0.2-0.3,0.4c0,0,2.1-8.7-3.9-8.7c-3.8,0-9,4.1-11.6,7.9l-8.8,4.8l-4.3,2.4
	l-0.3-0.3c-7.3-7.8-20.8-13.3-20.3-23.8c0.2-3.8,1.5-13.9,26-26c20-10,36.1-7.2,38.8-1.1c3.9,8.7-8.6,24.9-29.4,27.2
	c-7.9,0.9-12.1-2.2-13.1-3.3s-1.3-1.3-1.7-1c-0.7,0.4-0.2,1.4,0,2.1c0.6,1.6,3.2,4.5,7.5,5.9c3.8,1.3,13.1,1.9,24.4-2.4
	C76,53,85.9,39.4,82.9,28.1s-22.1-15.3-40.1-8.9C32,23,20.4,29,12,36.8C2,46.2,0.4,54.3,1.1,57.6c2.4,12,19,19.9,25.7,25.7l-0.9,0.5
	c-3.3,1.6-16,8.3-19.1,15.3c-3.6,7.9,0.6,13.6,3.3,14.4c8.5,2.3,17.3-1.9,22-9s4.1-16.2,2-20.3l-0.1-0.2l2.6-1.5
	c1.6-0.9,3.2-1.8,4.8-2.7c-1,2.8-1.5,5.7-1.7,8.7c-0.4,4.5,1.5,10.4,3.9,12.6c0.9,0.8,2,1.1,3.2,1c2.8,0,4.1-2.3,5.5-5.1
	c1.7-3.4,3.2-7.4,3.2-7.4s-1.9,10.7,3.3,10.7c1.9,0,3.9-2.5,4.7-3.8l0,0l0.1-0.2l0.3-0.5l0,0c0.8-1.3,2.5-4.4,5-9.4
	c3.3-6.5,6.5-14.6,6.5-14.6c0.3,1.8,0.8,3.5,1.3,5.3c0.8,2.1,1.7,4.2,2.7,6.1c-0.8,1.1-1.3,1.7-1.3,1.7l0,0c-0.6,0.9-1.3,1.7-2,2.6
	c-2.6,3.1-5.7,6.7-6.1,7.7c-0.6,0.9-0.3,2.2,0.6,2.8c1,0.5,2.1,0.7,3.2,0.5c1.7-0.1,3.3-0.5,4.8-1.1c1.5-0.5,2.9-1.3,4.1-2.2
	c2.6-1.8,4.1-4.9,3.9-8.1c-0.1-2-0.5-4-1.3-5.8l0.7-1c2.6-4,5-8.1,7.1-12.4c0.3,1.8,0.8,3.5,1.3,5.3c0.6,1.8,1.4,3.6,2.3,5.3
	c-3.1,2.4-5.5,5.5-7,9c-1.5,4.4-0.3,6.3,1.9,6.8c1.2,0.1,2.4-0.2,3.5-0.7c1.6-0.5,3.1-1.3,4.4-2.3c2.6-1.9,5-4.5,4.9-8.1
	c-0.1-1.6-0.5-3.3-1.1-4.8c4-1.6,8.4-2.1,12.7-1.5l0,0c0.6,0.1,1.1,0.1,1.6,0.2c0.3,0.1,10.1,2.6,9.8,9.3c-0.3,6.7-4.9,6.5-4.3,7.4
	c0.6,0.9,7.2-2.8,7.2-8.2C130.3,80.8,123.5,73.3,117.8,72.7z M26,102c-3.8,4.1-9.1,5.7-11.3,4.4c-2.2-1.3-1.5-7.4,3.2-11.8
	c2.7-2.5,5.7-4.7,8.9-6.6l0,0l2.3-1.4l0.3-0.1l0,0l0.6-0.4C31.6,91.6,30.1,97.8,26,102z M53.4,83.4c-1.3,3.2-4.1,11.4-5.7,11
	c-1.4-0.4-2.3-6.6-0.3-12.7c1-3,2.5-5.7,4.5-8.2l0,0c2.1-2.3,4.3-3.1,4.9-2.1C57.5,72.4,54.3,81.3,53.4,83.4z M76.1,94.2
	c-0.4,0.3-0.8,0.4-1.3,0.3c-0.2-0.1,0.2-0.5,0.2-0.5s2.8-3.1,3.9-4.4c0.8-1,1.5-1.9,2.3-2.9c0,0.1,0,0.2,0,0.3
	C81.2,90.7,77.7,93.2,76.1,94.2L76.1,94.2z M93.6,90.2c-0.4-0.3-0.4-1.3,1-4.2c1-1.9,2.3-3.6,3.9-5c0.2,0.7,0.4,1.5,0.4,2.2
	C98.9,86.5,96.8,89.3,93.6,90.2L93.6,90.2z"/>
</svg>
