<?xml version="1.0" encoding="utf-8"?>
<!-- Generator: Adobe Illustrator 19.0.0, SVG Export Plug-In . SVG Version: 6.00 Build 0)  -->
<svg version="1.1" id="Capa_1" xmlns="http://www.w3.org/2000/svg" xmlns:xlink="http://www.w3.org/1999/xlink" x="0px" y="0px"
	 viewBox="-73 164.9 448 512" style="enable-background:new -73 164.9 448 512;" xml:space="preserve">
<path style="fill:#55ACEE;" d="M327,196.9H-25c-26.5,0-48,21.5-48,48v352c0,26.5,21.5,48,48,48h352c26.5,0,48-21.5,48-48v-352
	C375,218.4,353.5,196.9,327,196.9z M278.1,355.7c0.2,2.8,0.2,5.7,0.2,8.5c0,86.7-66,186.6-186.6,186.6C54.5,550.8,20,540-9,521.4
	c5.3,0.6,10.4,0.8,15.8,0.8c30.7,0,58.9-10.4,81.4-28c-28.8-0.6-53-19.5-61.3-45.5c10.1,1.5,19.2,1.5,29.6-1.2
	C26.5,441.4,4,415,4,383.1v-0.8c8.7,4.9,18.9,7.9,29.6,8.3C15.3,378.4,4.4,357.9,4.4,336c0-12.2,3.2-23.4,8.9-33.1
	c32.3,39.8,80.8,65.8,135.2,68.6c-9.3-44.5,24-80.6,64-80.6c18.9,0,35.9,7.9,47.9,20.7c14.8-2.8,29-8.3,41.6-15.8
	c-4.9,15.2-15.2,28-28.8,36.1c13.2-1.4,26-5.1,37.8-10.2C302.1,334.8,290.9,346.4,278.1,355.7z"/>
</svg>
