<?xml version="1.0" encoding="utf-8"?>
<!-- Generator: Adobe Illustrator 19.0.0, SVG Export Plug-In . SVG Version: 6.00 Build 0)  -->
<svg version="1.1" id="Capa_1" xmlns="http://www.w3.org/2000/svg" xmlns:xlink="http://www.w3.org/1999/xlink" x="0px" y="0px"
	 viewBox="-73 164.9 448 512" style="enable-background:new -73 164.9 448 512;" xml:space="preserve">
<path style="fill:#AAD450;" d="M330.2,196.9H-28.2c-24.7,0-44.8,20.1-44.8,44.8v358.4c0,24.7,20.1,44.8,44.8,44.8h358.4
	c24.7,0,44.8-20.1,44.8-44.8V241.7C375,217,354.9,196.9,330.2,196.9L330.2,196.9z M304,345.7c-1.4,31.5-23.4,74.7-66,129.4
	c-44,57.2-81.3,85.8-111.7,85.8c-18.9,0-34.8-17.4-47.9-52.3c-25.5-93.3-36.4-148-57.4-148c-2.4,0-10.9,5.1-25.4,15.2l-15.2-19.6
	C17.7,323.4,53.3,287,75.6,285c25.2-2.4,40.7,14.8,46.5,51.7c20.7,131.2,29.9,151,67.6,91.6c13.5-21.4,20.8-37.7,21.8-48.9
	c3.5-33.2-25.9-30.9-45.8-22.4c15.9-52.1,46.3-77.4,91.2-76C290.2,281.9,305.9,303.5,304,345.7L304,345.7z"/>
</svg>
