<?xml version="1.0" encoding="utf-8"?>
<!-- Generator: Adobe Illustrator 23.0.3, SVG Export Plug-In . SVG Version: 6.00 Build 0)  -->
<svg version="1.1" id="Capa_1" xmlns="http://www.w3.org/2000/svg" xmlns:xlink="http://www.w3.org/1999/xlink" x="0px" y="0px"
	 viewBox="0 0 141.7 141.7" style="enable-background:new 0 0 141.7 141.7;" xml:space="preserve">
<style type="text/css">
	.st0{fill:#FFFFFF;}
	.st1{fill:#76AADB;}
</style>
<g id="Capa_2">
	<g id="Capa_4">
		<circle class="st0" cx="71.1" cy="71.1" r="69.6"/>
	</g>
	<g id="Capa_3">
		<g id="XMLID_60_">
			<path id="XMLID_72_" class="st1" d="M55.6,107.8c4.6-11.1,9.3-22.3,13.9-33.4c0.1-0.3,0.2-0.9,0.1-1.3
				c-2.7-6.5-5.3-13.1-8.3-19.6c-1.3-2.8-3.7-4.6-7-4.9c-1.1-0.1-2.2-0.2-3.3-0.3c0-0.8,0-1.5,0-2.3c14.7,0,29.5,0,44.1,0
				c0,0.9,0,1.5,0,2.4c-1.1,0-2.1-0.1-3.1,0c-1,0.1-2,0.3-2.9,0.5c-2.5,0.5-3.9,2.6-3.4,5.1c0.2,1.2,0.7,2.3,1,3.5
				c6,15.8,12.1,31.6,18.1,47.5c0.1,0.3,0.3,0.5,0.4,0.9c0.2,0,0.3,0.1,0.5,0.1c2.7-7.6,5.9-15.2,8.2-23c3.2-10.4,3.4-20.9,0.2-31.5
				c-1.1-3.6-2.3-7.1-3.1-10.8c-1.1-5.3,1.3-9.3,6.5-10.8c0.7-0.2,1.3-0.3,2.3-0.5C102.4,10.6,81.4,2.9,56.6,8.5
				c-21.2,4.7-35.8,17.7-44.9,37.4c10.4,0,20.3,0,30.2,0c0,0.9,0,1.5,0,2.2c-1.7,0.3-3.4,0.4-4.9,1c-2.1,0.7-3.2,2.3-2.9,4.5
				c0.2,1.5,0.5,3.1,1.1,4.5c5.1,12.9,10.3,25.7,15.4,38.6c1.5,3.8,3.1,7.6,4.7,11.7C55.4,108,55.5,107.9,55.6,107.8z"/>
			<path id="XMLID_71_" class="st1" d="M50.7,131.8c13.9,4.4,27.5,4.3,41.3-0.3c-6.5-17-13-33.9-19.6-51.1
				C65.2,97.6,58,114.6,50.7,131.8z"/>
			<path id="XMLID_70_" class="st1" d="M131.7,50.7c-9.7,25.4-19.2,50.4-28.9,75.6C129.6,111.3,141.2,78.6,131.7,50.7z"/>
			<path id="XMLID_69_" class="st1" d="M39.9,126.9C29.7,102.1,20.4,77.2,9.6,53C0.1,84.5,16.8,115,39.9,126.9z"/>
			<path id="XMLID_61_" class="st1" d="M70.9,141.7c-39.1,0-70.8-31.7-70.8-70.8S31.7,0,70.9,0s70.8,31.7,70.8,70.8
				S110,141.7,70.9,141.7z M70.9,2.5C33.2,2.5,2.5,33.2,2.5,70.9s30.7,68.3,68.3,68.3s68.3-30.7,68.3-68.3S108.5,2.5,70.9,2.5z"/>
		</g>
	</g>
</g>
</svg>
